# xmcd
#
# Track frame offsets:
#	150
#	21457
#	32341
#	46099
#	58417
#	75521
#	104397
#	125574
#	145769
#	166635
#	193030
#
# Disc length: 2767 seconds
#
# Revision: 1
# Processed by: cddbd v1.5.2PL0 Copyright (c) Steve Scherf et al.
# Submitted via: audiograbber 1.83.01
#
DISCID=8b0acd0b
DTITLE=Inneke 23 and The Lipstick Painters - Charcoal
DYEAR=2008
DGENRE=Country
TTITLE0=Black
TTITLE1=Star car
TTITLE2=No more heroes
TTITLE3=My door's open
TTITLE4=I'd rather be a fair play loser
TTITLE5=Sweet headed girl
TTITLE6=Night at the crossroads
TTITLE7=Your smile, olives and red wine
TTITLE8=You won't see me with the Drifter no more
TTITLE9=Happy in the end
TTITLE10=Some room for the blues in your heart
EXTD=
EXTT0=
EXTT1=
EXTT2=
EXTT3=
EXTT4=
EXTT5=
EXTT6=
EXTT7=
EXTT8=
EXTT9=
EXTT10=
PLAYORDER=
